<?xml version="1.0" encoding="UTF-8" standalone="no"?>
<svg
   xmlns="http://www.w3.org/2000/svg"
   viewBox="0 0 261 431">
 <g>
  <path
     style="stroke:#000;stroke-width:1px;fill:none;"
     d="m 107.64869,320.96229 72.97532,0 0,-76.52272"
     id="path9299"/>
  <path
     style="stroke:#000;stroke-width:1px;fill:none;"
     d="m 180.11723,219.10092 0,-73.48209 -99.327503,0 0,72.46854 z"
     id="path9301"
     />
  <path
     style="stroke:#000;stroke-width:1px;fill:none;"
     d="m 121.33156,219.10092 0,101.60799"
     id="path9303"

      />
  <path
     style="stroke:#000;stroke-width:1px;fill:none;"
     d="m 121.33156,303.22524 -16.21673,0 0,6.57644"
     id="path9305"
     />
  <path
     id="path9309"
     style="stroke:#000;stroke-width:1px;fill:none;"
     d="m 79.658497,324.91285 -0.0315,-15.24675 -78.518324,-0.0435 0,-91.38671 80.428494,0"

      />
  <path
     style="stroke:#000;stroke-width:1px;fill:none;"
     d="m 79.776177,336.16549 0,11.65577 -78.549824,0 0,-38.00797"
     id="path9311"
     />
  <path
     style="stroke:#000;stroke-width:1px;fill:none;"
     d="m 1.195613,348.32804 0,38.51475 43.35984,42.82232 128.466957,0 0,-76.77611 -11.149,0"
     id="path9313"

      />
  <path
     style="stroke:#000;stroke-width:1px;fill:none;"
     d="m 148.69731,354.40931 -28.88607,0 16.21674,0 0,73.48209"
     id="path9315"
     />
  <path
     style="stroke:#000;stroke-width:1px;fill:none;"
     d="m 105.6216,353.39577 -10.642223,0 0,75.00241"
     id="path9317"
     />
  <path
     style="stroke:#000;stroke-width:1px;fill:none;"
     d="m 32.349423,417.78668 46.876514,-46.87651 0,-9.32798"
     id="path9319"

      />
  <path
     style="stroke:#000;stroke-width:1px;fill:none;"
     d="m 165.42082,342.24676 0,10.52455"
     id="path9321"

      />
  <path
     style="stroke:#000;stroke-width:1px;fill:none;"
     d="m 212.04393,322.48261 48.65021,0"
     id="path9325"
     />
  <path
     id="path9327"
     style="stroke:#000;stroke-width:1px;fill:none;"
     d="m 173.05052,393.93761 38.48664,0 0,-51.94424 48.44293,-0.25338"

      />
  <path
     style="stroke:#000;stroke-width:1px;fill:none;"
     d="m 227.24713,322.57483 0,-29.99183 -16.21674,0 0,-58.78567 24.83188,0"
     id="path9329"

      />
  <path
     style="stroke:#000;stroke-width:1px;fill:none;"
     d="m 236.36904,219.60769 -26.3522,0 0,-56.25181 27.36575,0"
     id="path9331"
     />
  <path
     style="stroke:#000;stroke-width:1px;fill:none;"
     d="m 228.76744,112.67858 -18.24382,0 0,26.3522 22.80478,0"
     id="path9333"
     />
  <path
     style="stroke:#000;stroke-width:1px;fill:none;"
     d="m 226.23358,87.846713 -15.20319,0 0,-47.12989 15.70996,0"
     id="path9335"
     />
  <path
     style="stroke:#000;stroke-width:1px;fill:none;"
     d="m 226.23358,11.830753 -17.23028,0 0,-11.14899985"
     id="path9337"
     />
  <path
     style="stroke:#000;stroke-width:1px;fill:none;"
     d="m 180.62401,69.096113 0,-56.75858 -58.78567,0"
     id="path9339"
     />
  <path
     style="stroke:#000;stroke-width:1px;fill:none;"
     d="m 181.13078,102.54312 0,12.16255 -75.00241,0 0,-13.68287"
     id="path9341"
     />
  <path
     style="stroke:#000;stroke-width:1px;fill:none;"
     d="m 80.395079,101.43459 0,14.69642 -13.68287,0"
     id="path9347"
     />
  <path
     style="stroke:#000;stroke-width:1px;fill:none;"
     d="m 155.28536,114.70567 0,-13.1761"
     id="path9343"
     />
  <path
     style="stroke:#000;stroke-width:1px;fill:none;"
     d="m 181.13078,57.440333 -59.79922,0 0,56.820047"
     id="path9345"

      />
  <path
     style="stroke:#000;stroke-width:1px;fill:none;"
     d="m 180.68735,12.400873 0,-12.03585985"
     id="path9351"

      />
 </g>
</svg>
